inDegrees=yes
name=ik_S46_A10_T02
DataType=double
version=3
OpenSimVersion=4.3-2021-08-27-4bc7ad9
endheader
time	pelvis_tilt	pelvis_list	pelvis_rotation	pelvis_tx	pelvis_ty	pelvis_tz	hip_flexion_r	hip_adduction_r	hip_rotation_r	knee_angle_r	knee_angle_r_beta	ankle_angle_r	subtalar_angle_r	mtp_angle_r	hip_flexion_l	hip_adduction_l	hip_rotation_l	knee_angle_l	knee_angle_l_beta	ankle_angle_l	subtalar_angle_l	mtp_angle_l	lumbar_extension	lumbar_bending	lumbar_rotation	arm_flex_r	arm_add_r	arm_rot_r	elbow_flex_r	pro_sup_r	wrist_flex_r	wrist_dev_r	arm_flex_l	arm_add_l	arm_rot_l	elbow_flex_l	pro_sup_l	wrist_flex_l	wrist_dev_l
0	0	0	0	0	0.9399999999999999	0	0	0	0	0	0	0	0	0	0	0	0	0	0	0	0	0	0	0	0	0	0	0	0	89.99999999963507	0	0	0	0	0	0	89.99999999869995	0	0
0.02	-1.087714656595804	-2.152160318490255	29.40090947024457	0	0.9399999999999999	0	1.875253601227198	-0.8788900762936995	-0.6300423284619381	2.912316935148415	0.05082951937993002	0	0	0	1.875253601227198	-0.8788900762936995	-0.6300423284619381	2.912316935148415	0.05082951937993002	0	0	0	0.2413610843264819	-0.8543898472360955	10.66634077384545	30.02541350007173	1.90999814791228	19.64409365145331	12.37757309146628	61.59042911189909	0	0	27.45172585892553	9.092920340075834	8.811338406870773	9.277413234880624	53.29834677753341	0	0
0.04	-1.102212967166586	-2.186270677458155	29.43310867569249	0	0.9399999999999999	0	1.935687885183741	-0.9079384109719495	-0.6526739179954966	2.965678898781071	0.05176086134064934	0	0	0	1.935687885183741	-0.9079384109719495	-0.6526739179954966	2.965678898781071	0.05176086134064934	0	0	0	0.2100842427613522	-0.8775945037162872	10.67270815950164	30.06698809217493	1.926814286276946	19.60971604436264	12.36729938096745	61.60632226430731	0	0	27.50888321197514	9.06418165329824	8.857781725984523	9.261997249047841	53.31477195069029	0	0
0.06	-1.124055302533865	-2.214399430563123	29.46331002767392	0	0.9399999999999999	0	2.052748933600795	-0.9611558508391554	-0.6965972031872193	3.05640047872288	0.05334425161324514	0	0	0	2.052748933600795	-0.9611558508391554	-0.6965972031872193	3.05640047872288	0.05334425161324514	0	0	0	0.1726937733169136	-0.8924346397277932	10.66556414927105	30.13232689050793	1.945867872306174	19.59230539688239	12.37258683694694	61.64028242770402	0	0	27.58023591576976	9.045373274223588	8.875809766533267	9.238588218884663	53.36544047689814	0	0
0.08	-1.124832068372768	-2.226291133600478	29.48319355133233	0	0.9399999999999999	0	2.186980515811749	-1.020804858572471	-0.747135604608393	3.151182174375954	0.05499850427301448	0	0	0	2.186980515811749	-1.020804858572471	-0.747135604608393	3.151182174375954	0.05499850427301448	0	0	0	0.1605567506143307	-0.9036436023178411	10.64859231060626	30.13225398779274	1.980609242455714	19.60479108160276	12.35911679552041	61.71499373374205	0	0	27.59252971695303	9.014255028197129	8.85825282348868	9.222171357163669	53.42379666075912	0	0
0.1	-1.132481542533988	-2.250053693987634	29.51447610225942	0	0.9399999999999999	0	2.272377421159	-1.058895551382172	-0.7795039450563038	3.208425354260257	0.05599758623630696	0	0	0	2.272377421159	-1.058895551382172	-0.7795039450563038	3.208425354260257	0.05599758623630696	0	0	0	0.1389761312729495	-0.9214377917201979	10.65226282711147	30.17704649945532	1.997418201744781	19.57655683043225	12.32908545765927	61.70545263649304	0	0	27.62784500847126	9.007964777327791	8.889833332781029	9.177072373919678	53.42974454991229	0	0
0.12	-1.140442231537054	-2.262545730458364	29.53427344946057	0	0.9399999999999999	0	2.335917873726855	-1.092066036430388	-0.8021622178094543	3.288293832194992	0.05739155414482453	0	0	0	2.335917873726855	-1.092066036430388	-0.8021622178094543	3.288293832194992	0.05739155414482453	0	0	0	0.1243230912012723	-0.9288350356810897	10.65375475331118	30.19916731723975	1.980581877789999	19.55313724899852	12.34855423168336	61.71776361836385	0	0	27.62019833887491	8.993232403868321	8.898505081945622	9.221429313119069	53.43487288041801	0	0
0.14	-1.149397611442857	-2.282145548812801	29.561995416271	0	0.9399999999999999	0	2.454502944856817	-1.145534208378321	-0.8461252978473479	3.382281136689555	0.05903194206332912	0	0	0	2.454502944856817	-1.145534208378321	-0.8461252978473479	3.382281136689555	0.05903194206332912	0	0	0	0.102365660474188	-0.9425024224749401	10.64793701679717	30.23192772767799	2.009486943041189	19.54807231513694	12.34132647512376	61.74539183976425	0	0	27.65715571469113	8.992545286041503	8.936927172729881	9.217660675203826	53.43654065555861	0	0
0.16	-1.156371765331303	-2.299710768377338	29.60158583005431	0	0.9399999999999999	0	2.578018992972311	-1.200389049035649	-0.8920210233562967	3.474297894376429	0.06063793745197487	0	0	0	2.578018992972311	-1.200389049035649	-0.8920210233562967	3.474297894376429	0.06063793745197487	0	0	0	0.08320694572646638	-0.9556636558375404	10.65093166361399	30.26479186027984	2.012309841421275	19.51569069125974	12.32678408866226	61.77180657963424	0	0	27.67751781098806	8.991639033732481	8.958901854898887	9.189118618572101	53.45474441147338	0	0
0.18	-1.168065825987449	-2.315241087712033	29.62084880463706	0	0.9399999999999999	0	2.622033695430307	-1.222769073232099	-0.908200733579057	3.520302980342272	0.06144087767474186	0	0	0	2.622033695430307	-1.222769073232099	-0.908200733579057	3.520302980342272	0.06144087767474186	0	0	0	0.06406480316190109	-0.9637040263483587	10.65339009871488	30.29008696310693	1.999767074494367	19.49258909451039	12.30373870847271	61.78230401215052	0	0	27.72049540822411	8.986957049897818	8.975270700987544	9.176695898690472	53.44770798221921	0	0
0.2	-1.181779457662266	-2.333177349042071	29.65823665109161	0	0.9399999999999999	0	2.753581735049518	-1.281335815319904	-0.9566505570238554	3.624184497662075	0.06325395218393993	0	0	0	2.753581735049518	-1.281335815319904	-0.9566505570238554	3.624184497662075	0.06325395218393993	0	0	0	0.03854996573435632	-0.9738974989958351	10.65187450661542	30.32820704642172	2.013229732659328	19.50258089172351	12.31926614108801	61.81005380837441	0	0	27.73281306323451	8.990781032040776	8.992614859215495	9.169970229840779	53.48948357783146	0	0
0.22	-1.192112695829588	-2.346881543081132	29.6821651741093	0	0.9399999999999999	0	2.802212474338712	-1.299857630093802	-0.975973474911064	3.629791314085726	0.06335180959108755	0	0	0	2.802212474338712	-1.299857630093802	-0.975973474911064	3.629791314085726	0.06335180959108755	0	0	0	0.02035990394876964	-0.9812293709842483	10.65543857227793	30.37200517590721	2.026604059710322	19.51994230450933	12.20782609386626	61.81551899126027	0	0	27.76211991205058	9.009412911211422	9.016303716084542	9.034736940286859	53.49108891877737	0	0
0.24	-1.202452693480005	-2.35092780133272	29.70161982180938	0	0.9399999999999999	0	2.92175922049578	-1.353634222766497	-1.01973604593367	3.729422359549041	0.06509069937162655	0	0	0	2.92175922049578	-1.353634222766497	-1.01973604593367	3.729422359549041	0.06509069937162655	0	0	0	0.004883905282383166	-0.9807478354526078	10.64464126725834	30.36361191342278	2.024048200932718	19.55013771427386	12.22648805940198	61.84219423772811	0	0	27.77216797627201	9.01532479573245	8.99816908382137	9.062358324313953	53.51934604673439	0	0
0.26	-1.227228580678936	-2.376721490559887	29.7391179335054	0	0.9399999999999999	0	3.009186266890169	-1.395516161752641	-1.051190386533183	3.820120970655706	0.06667368876242376	0	0	0	3.009186266890169	-1.395516161752641	-1.051190386533183	3.820120970655706	0.06667368876242376	0	0	0	-0.03177750207099921	-0.991909292345324	10.65249312606653	30.40333517587082	2.007599707976361	19.5285006442241	12.27324795250333	61.84882096679189	0	0	27.79806663893387	9.005367736948706	9.015907298084375	9.109257418279391	53.55319089071238	0	0
0.28	-1.248716334332847	-2.394525348513834	29.77262871702623	0	0.9399999999999999	0	3.157971691782318	-1.463528306678857	-1.104726492941972	3.959210168827801	0.0691012532244857	0	0	0	3.157971691782318	-1.463528306678857	-1.104726492941972	3.959210168827801	0.0691012532244857	0	0	0	-0.06412262531292093	-0.9981278631714928	10.64633401797557	30.4459857934286	2.054265183037834	19.50073684265635	12.20603873152174	61.90084129867041	0	0	27.83737490152878	9.026887277322787	9.044628199703709	9.048291285040785	53.59740901829347	0	0
0.3	-1.275037654294947	-2.408188387118642	29.79730459995196	0	0.9399999999999999	0	3.19527704939791	-1.480674571405883	-1.118956095949421	3.982710990736886	0.06951141994372405	0	0	0	3.19527704939791	-1.480674571405883	-1.118956095949421	3.982710990736886	0.06951141994372405	0	0	0	-0.09489955099656329	-0.9975594180050606	10.65469086247971	30.47279698622598	2.037998427805189	19.46021544361778	12.14627946604943	61.92383607312453	0	0	27.87473166329515	9.036667446944817	9.055098091935543	8.978830449985685	53.60844898558648	0	0
0.32	-1.310050927351339	-2.424953367444255	29.8286019235151	0	0.9399999999999999	0	3.331625689209447	-1.538083815011872	-1.169043895458099	4.075620136031194	0.07113299043432351	0	0	0	3.331625689209447	-1.538083815011872	-1.169043895458099	4.075620136031194	0.07113299043432351	0	0	0	-0.1392052842319871	-0.9964685566035243	10.64220257629853	30.5379421747101	2.053464694204992	19.43159238995959	12.10836306969689	62.03423995213469	0	0	27.91815697880736	9.065329234797202	9.076325656841515	8.945386474368222	53.68215329204991	0	0
0.34	-1.318799596451583	-2.433267144717981	29.82851062972398	0	0.9399999999999999	0	3.34995621113903	-1.54751497623217	-1.175275834505222	4.102287726031092	0.07159842768339364	0	0	0	3.34995621113903	-1.54751497623217	-1.175275834505222	4.102287726031092	0.07159842768339364	0	0	0	-0.1509249171657851	-0.999740802038627	10.65326232857035	30.52517519225143	2.108970507373053	19.38909703061521	11.94159966035935	62.12444744290917	0	0	27.86113652796876	9.04970271054178	9.163290060626005	8.902184099569745	53.70840896623877	0	0
0.36	-1.300996130589259	-2.405154963923079	30.28301441315415	0	0.9399999999999999	0	7.056905128620269	-3.125373261698272	-2.460771736356654	7.636446199309916	0.1332811293293652	0	0	0	7.056905128620269	-3.125373261698272	-2.460771736356654	7.636446199309916	0.1332811293293652	0	0	0	-0.243053597509453	-1.011123656080889	10.2168473379744	30.57099159318894	2.082815224527975	19.39335581342861	11.94145127858045	62.10533652590887	0	0	27.86240278527007	9.064050055204095	9.240630975247807	8.798601696860253	53.74599663588898	0	0
